General
Complete name                            : D:\JavaScript\demo\public\video\bech.mp4
Format                                   : MPEG-4
Format profile                           : Base Media
Codec ID                                 : isom (isom/iso2/avc1/mp41)
File size                                : 4.17 MiB
Duration                                 : 52 s 209 ms
Overall bit rate mode                    : Variable
Overall bit rate                         : 670 kb/s
Movie name                               : Sintel Trailer
Performer                                : Durian Open Movie Team
Description                              : Trailer for the Sintel open movie project
Encoded date                             : UTC 1970-01-01 00:00:00
Tagged date                              : UTC 1970-01-01 00:00:00
Writing application                      : Lavf52.62.0
Copyright                                : (c) copyright Blender Foundation | durian.blender.org

Video
ID                                       : 1
Format                                   : AVC
Format/Info                              : Advanced Video Codec
Format profile                           : High@L3
Format settings                          : CABAC / 5 Ref Frames
Format settings, CABAC                   : Yes
Format settings, ReFrames                : 5 frames
Codec ID                                 : avc1
Codec ID/Info                            : Advanced Video Coding
Duration                                 : 52 s 209 ms
Bit rate                                 : 538 kb/s
Width                                    : 854 pixels
Height                                   : 480 pixels
Display aspect ratio                     : 16:9
Frame rate mode                          : Constant
Frame rate                               : 24.000 FPS
Color space                              : YUV
Chroma subsampling                       : 4:2:0
Bit depth                                : 8 bits
Scan type                                : Progressive
Bits/(Pixel*Frame)                       : 0.055
Stream size                              : 3.35 MiB (80%)
Writing library                          : x264 core 94 r1583 7608d73
Encoding settings                        : cabac=1 / ref=5 / deblock=1:0:0 / analyse=0x3:0x113 / me=umh / subme=8 / psy=1 / psy_rd=1.00:0.00 / mixed_ref=1 / me_range=16 / chroma_me=1 / trellis=1 / 8x8dct=1 / cqm=0 / deadzone=21,11 / fast_pskip=1 / chroma_qp_offset=-2 / threads=1 / sliced_threads=0 / nr=0 / decimate=1 / interlaced=0 / constrained_intra=0 / bframes=3 / b_pyramid=2 / b_adapt=2 / b_bias=0 / direct=3 / weightb=1 / weightp=2 / keyint=250 / keyint_min=25 / scenecut=40 / intra_refresh=0 / rc_lookahead=50 / rc=crf / mbtree=1 / crf=22.0 / qcomp=0.60 / qpmin=10 / qpmax=51 / qpstep=4 / ip_ratio=1.41 / aq=1:1.00
Encoded date                             : UTC 1970-01-01 00:00:00
Tagged date                              : UTC 1970-01-01 00:00:00

Audio
ID                                       : 2
Format                                   : AAC
Format/Info                              : Advanced Audio Codec
Format profile                           : LC
Codec ID                                 : mp4a-40-2
Duration                                 : 51 s 947 ms
Bit rate mode                            : Variable
Bit rate                                 : 127 kb/s
Channel(s)                               : 2 channels
Channel positions                        : Front: L R
Sampling rate                            : 48.0 kHz
Frame rate                               : 46.875 FPS (1024 SPF)
Compression mode                         : Lossy
Stream size                              : 803 KiB (19%)
Encoded date                             : UTC 1970-01-01 00:00:00
Tagged date                              : UTC 1970-01-01 00:00:00

